<svg width="76" height="31" viewBox="0 0 76 31" fill="none" xmlns="http://www.w3.org/2000/svg">
<path d="M4.09224 11.0848C3.38546 11.0848 2.7741 10.9329 2.25815 10.6289C1.74221 10.318 1.34288 9.87622 1.06017 9.30374C0.784522 8.72418 0.646701 8.04214 0.646701 7.25762C0.646701 6.48016 0.784522 5.80519 1.06017 5.2327C1.34288 4.65314 1.74221 4.21141 2.25815 3.90749C2.7741 3.59651 3.38546 3.44102 4.09224 3.44102C4.56578 3.44102 5.01105 3.51877 5.42805 3.67426C5.85211 3.82268 6.21964 4.03825 6.53062 4.32096C6.6437 4.42697 6.70025 4.55066 6.70025 4.69202C6.70025 4.79096 6.67197 4.87931 6.61543 4.95706C6.55889 5.02773 6.49175 5.06307 6.414 5.06307C6.32919 5.06307 6.22671 5.0242 6.10655 4.94646C5.7461 4.66374 5.41745 4.46585 5.1206 4.35276C4.83082 4.23968 4.4951 4.18314 4.11344 4.18314C3.29358 4.18314 2.66102 4.45171 2.21575 4.98886C1.77754 5.51894 1.55844 6.2752 1.55844 7.25762C1.55844 8.2471 1.77754 9.01042 2.21575 9.54757C2.66102 10.0777 3.29358 10.3427 4.11344 10.3427C4.48803 10.3427 4.82375 10.2862 5.1206 10.1731C5.41745 10.06 5.7461 9.86209 6.10655 9.57938C6.22671 9.50163 6.32919 9.46276 6.414 9.46276C6.49175 9.46276 6.55889 9.4981 6.61543 9.56878C6.67197 9.63945 6.70025 9.7278 6.70025 9.83382C6.70025 9.97517 6.6437 10.0989 6.53062 10.2049C6.21964 10.4876 5.85211 10.7067 5.42805 10.8622C5.01105 11.0106 4.56578 11.0848 4.09224 11.0848ZM10.5249 5.73098C10.8217 5.70977 10.9701 5.82993 10.9701 6.09143C10.9701 6.20452 10.9383 6.2964 10.8747 6.36708C10.8111 6.43069 10.7016 6.46956 10.5461 6.4837L10.228 6.5155C9.75449 6.55791 9.4011 6.72753 9.16786 7.02438C8.94169 7.31416 8.82861 7.65694 8.82861 8.05274V10.6289C8.82861 10.7703 8.78974 10.8763 8.71199 10.947C8.63425 11.0177 8.53176 11.053 8.40454 11.053C8.27732 11.053 8.17131 11.0177 8.08649 10.947C8.00875 10.8692 7.96988 10.7632 7.96988 10.6289V6.15504C7.96988 6.02076 8.01228 5.91827 8.0971 5.8476C8.18191 5.76985 8.28439 5.73098 8.40454 5.73098C8.51763 5.73098 8.61304 5.76985 8.69079 5.8476C8.76853 5.91827 8.80741 6.01722 8.80741 6.14444V6.73813C8.95583 6.42715 9.16433 6.19038 9.4329 6.02782C9.70855 5.86527 10.0231 5.76985 10.3765 5.74158L10.5249 5.73098ZM15.6007 9.80201C15.6784 9.80201 15.7456 9.83382 15.8021 9.89743C15.8586 9.96104 15.8869 10.0423 15.8869 10.1413C15.8869 10.318 15.7632 10.4805 15.5159 10.6289C15.2614 10.7774 14.9928 10.8904 14.7101 10.9682C14.4274 11.0389 14.1518 11.0742 13.8832 11.0742C13.0845 11.0742 12.452 10.8374 11.9855 10.3639C11.5261 9.89036 11.2964 9.23659 11.2964 8.40259C11.2964 7.87251 11.3989 7.40604 11.6038 7.00318C11.8088 6.59325 12.0951 6.2752 12.4626 6.04903C12.8372 5.82286 13.2612 5.70977 13.7348 5.70977C14.4062 5.70977 14.9398 5.92888 15.3356 6.36708C15.7314 6.80528 15.9293 7.39897 15.9293 8.14815C15.9293 8.28951 15.901 8.39199 15.8445 8.4556C15.788 8.51921 15.6961 8.55102 15.5689 8.55102H12.1551C12.2187 9.76667 12.7948 10.3745 13.8832 10.3745C14.1588 10.3745 14.3956 10.3392 14.5935 10.2685C14.7914 10.1907 15.0034 10.0883 15.2296 9.96104C15.4134 9.85502 15.5371 9.80201 15.6007 9.80201ZM13.7454 6.37768C13.293 6.37768 12.929 6.51903 12.6534 6.80174C12.3848 7.08446 12.2258 7.48378 12.1763 7.99973H15.1766C15.1625 7.47672 15.0317 7.07739 14.7843 6.80174C14.537 6.51903 14.1906 6.37768 13.7454 6.37768ZM19.3043 5.70977C20.5977 5.70977 21.2444 6.38828 21.2444 7.74529V10.6289C21.2444 10.7562 21.2055 10.8586 21.1278 10.9364C21.0571 11.0141 20.9581 11.053 20.8309 11.053C20.7037 11.053 20.6012 11.0141 20.5235 10.9364C20.4457 10.8586 20.4069 10.7562 20.4069 10.6289V10.1201C20.2726 10.424 20.0676 10.6607 19.792 10.8304C19.5163 10.9929 19.1983 11.0742 18.8378 11.0742C18.5056 11.0742 18.1982 11.0071 17.9155 10.8728C17.6398 10.7385 17.4207 10.5512 17.2582 10.3109C17.0956 10.0706 17.0143 9.80555 17.0143 9.51577C17.0143 9.12704 17.1133 8.82666 17.3112 8.61463C17.5091 8.39553 17.8342 8.24004 18.2865 8.14815C18.7389 8.04921 19.3679 7.99973 20.1736 7.99973H20.4069V7.64988C20.4069 7.22581 20.3185 6.91483 20.1418 6.71693C19.9722 6.51903 19.693 6.42009 19.3043 6.42009C18.8237 6.42009 18.336 6.55084 17.8413 6.81235C17.6504 6.9325 17.5161 6.99257 17.4384 6.99257C17.3536 6.99257 17.2829 6.96077 17.2264 6.89716C17.1698 6.83355 17.1415 6.75227 17.1415 6.65332C17.1415 6.55437 17.1698 6.46956 17.2264 6.39888C17.29 6.32114 17.3889 6.24339 17.5232 6.16565C17.7706 6.02429 18.0498 5.91474 18.3607 5.83699C18.6788 5.75218 18.9933 5.70977 19.3043 5.70977ZM18.9544 10.3957C19.3785 10.3957 19.7248 10.2544 19.9934 9.97164C20.269 9.68186 20.4069 9.3108 20.4069 8.85847V8.55102H20.216C19.5941 8.55102 19.1205 8.57929 18.7954 8.63583C18.4703 8.68531 18.2371 8.77365 18.0957 8.90087C17.9614 9.02102 17.8943 9.20125 17.8943 9.44156C17.8943 9.7172 17.9932 9.9469 18.1911 10.1307C18.3961 10.3074 18.6505 10.3957 18.9544 10.3957ZM25.2017 10.3745C25.4491 10.3957 25.5728 10.5088 25.5728 10.7138C25.5728 10.8339 25.5268 10.9258 25.4349 10.9894C25.3501 11.0459 25.2194 11.0671 25.0427 11.053L24.7564 11.0318C24.191 10.9894 23.774 10.8198 23.5054 10.5229C23.2369 10.2261 23.1026 9.77728 23.1026 9.17652V6.5155H22.3923C22.2721 6.5155 22.1767 6.48723 22.106 6.43069C22.0424 6.36708 22.0106 6.2858 22.0106 6.18685C22.0106 6.08083 22.0424 5.99602 22.106 5.93241C22.1767 5.8688 22.2721 5.83699 22.3923 5.83699H23.1026V4.63901C23.1026 4.50472 23.1415 4.40224 23.2192 4.33156C23.2969 4.25381 23.403 4.21494 23.5372 4.21494C23.6645 4.21494 23.7669 4.25381 23.8447 4.33156C23.9224 4.40224 23.9613 4.50472 23.9613 4.63901V5.83699H25.1381C25.2512 5.83699 25.3395 5.8688 25.4031 5.93241C25.4738 5.99602 25.5092 6.08083 25.5092 6.18685C25.5092 6.2858 25.4738 6.36708 25.4031 6.43069C25.3395 6.48723 25.2512 6.5155 25.1381 6.5155H23.9613V9.21892C23.9613 9.60765 24.0391 9.89036 24.1945 10.0671C24.3571 10.2367 24.5974 10.3321 24.9155 10.3533L25.2017 10.3745ZM30.4161 9.80201C30.4938 9.80201 30.561 9.83382 30.6175 9.89743C30.674 9.96104 30.7023 10.0423 30.7023 10.1413C30.7023 10.318 30.5786 10.4805 30.3312 10.6289C30.0768 10.7774 29.8082 10.8904 29.5255 10.9682C29.2428 11.0389 28.9672 11.0742 28.6986 11.0742C27.8999 11.0742 27.2674 10.8374 26.8009 10.3639C26.3415 9.89036 26.1118 9.23659 26.1118 8.40259C26.1118 7.87251 26.2143 7.40604 26.4192 7.00318C26.6242 6.59325 26.9104 6.2752 27.278 6.04903C27.6526 5.82286 28.0766 5.70977 28.5502 5.70977C29.2216 5.70977 29.7552 5.92888 30.151 6.36708C30.5468 6.80528 30.7447 7.39897 30.7447 8.14815C30.7447 8.28951 30.7164 8.39199 30.6599 8.4556C30.6034 8.51921 30.5115 8.55102 30.3843 8.55102H26.9705C27.0341 9.76667 27.6102 10.3745 28.6986 10.3745C28.9742 10.3745 29.211 10.3392 29.4089 10.2685C29.6068 10.1907 29.8188 10.0883 30.045 9.96104C30.2288 9.85502 30.3525 9.80201 30.4161 9.80201ZM28.5608 6.37768C28.1084 6.37768 27.7444 6.51903 27.4688 6.80174C27.2002 7.08446 27.0412 7.48378 26.9917 7.99973H29.992C29.9779 7.47672 29.8471 7.07739 29.5997 6.80174C29.3524 6.51903 29.006 6.37768 28.5608 6.37768ZM36.1552 3.47283C36.2895 3.47283 36.3955 3.5117 36.4733 3.58944C36.551 3.66719 36.5899 3.76614 36.5899 3.88629V10.6289C36.5899 10.7562 36.551 10.8586 36.4733 10.9364C36.3955 11.0141 36.2895 11.053 36.1552 11.053C36.0209 11.053 35.9149 11.0141 35.8372 10.9364C35.7665 10.8586 35.7311 10.7562 35.7311 10.6289V10.0565C35.5756 10.3816 35.3459 10.6325 35.042 10.8092C34.7452 10.9859 34.3953 11.0742 33.9925 11.0742C33.5401 11.0742 33.1408 10.9611 32.7945 10.735C32.4482 10.5088 32.1796 10.1943 31.9888 9.79141C31.7979 9.38148 31.7025 8.90794 31.7025 8.37079C31.7025 7.84071 31.7979 7.37423 31.9888 6.97137C32.1796 6.56851 32.4482 6.25753 32.7945 6.03843C33.1408 5.81932 33.5401 5.70977 33.9925 5.70977C34.3953 5.70977 34.7452 5.79812 35.042 5.97482C35.3459 6.15151 35.5756 6.40242 35.7311 6.72753V3.88629C35.7311 3.75907 35.7665 3.66012 35.8372 3.58944C35.9149 3.5117 36.0209 3.47283 36.1552 3.47283ZM34.1621 10.3639C34.6639 10.3639 35.0491 10.1943 35.3177 9.85502C35.5933 9.5087 35.7311 9.02102 35.7311 8.39199C35.7311 7.76296 35.5933 7.27882 35.3177 6.93957C35.0491 6.60031 34.6639 6.43069 34.1621 6.43069C33.6603 6.43069 33.268 6.60031 32.9853 6.93957C32.7097 7.27882 32.5718 7.75589 32.5718 8.37079C32.5718 8.99982 32.7097 9.49103 32.9853 9.84442C33.268 10.1907 33.6603 10.3639 34.1621 10.3639ZM43.5111 5.70977C43.9634 5.70977 44.3628 5.81932 44.7091 6.03843C45.0554 6.25753 45.324 6.56851 45.5148 6.97137C45.7056 7.37423 45.8011 7.84071 45.8011 8.37079C45.8011 8.90794 45.7056 9.38148 45.5148 9.79141C45.324 10.1943 45.0554 10.5088 44.7091 10.735C44.3628 10.9611 43.9634 11.0742 43.5111 11.0742C43.1082 11.0742 42.7548 10.9859 42.4509 10.8092C42.1541 10.6325 41.9279 10.3816 41.7724 10.0565V10.6289C41.7724 10.7562 41.7335 10.8586 41.6558 10.9364C41.5851 11.0141 41.4826 11.053 41.3484 11.053C41.2141 11.053 41.1081 11.0141 41.0303 10.9364C40.9526 10.8586 40.9137 10.7562 40.9137 10.6289V3.88629C40.9137 3.76614 40.9526 3.66719 41.0303 3.58944C41.1081 3.5117 41.2141 3.47283 41.3484 3.47283C41.4826 3.47283 41.5851 3.5117 41.6558 3.58944C41.7335 3.66012 41.7724 3.75907 41.7724 3.88629V6.72753C41.9279 6.40242 42.1541 6.15151 42.4509 5.97482C42.7548 5.79812 43.1082 5.70977 43.5111 5.70977ZM43.3415 10.3639C43.8433 10.3639 44.232 10.1907 44.5076 9.84442C44.7833 9.49103 44.9211 8.99982 44.9211 8.37079C44.9211 7.75589 44.7833 7.27882 44.5076 6.93957C44.232 6.60031 43.8433 6.43069 43.3415 6.43069C42.8397 6.43069 42.4509 6.60031 42.1753 6.93957C41.9067 7.27882 41.7724 7.76296 41.7724 8.39199C41.7724 9.02102 41.9067 9.5087 42.1753 9.85502C42.4509 10.1943 42.8397 10.3639 43.3415 10.3639ZM50.7432 5.99602C50.821 5.82639 50.9447 5.74158 51.1143 5.74158C51.2203 5.74158 51.3157 5.77692 51.4005 5.8476C51.4854 5.91827 51.5278 6.00662 51.5278 6.11264C51.5278 6.17625 51.5136 6.23279 51.4854 6.28226L48.5063 12.7069C48.471 12.7846 48.4179 12.8447 48.3473 12.8871C48.2837 12.9295 48.2165 12.9507 48.1458 12.9507C48.0398 12.9507 47.9444 12.9154 47.8596 12.8447C47.7818 12.7811 47.743 12.6963 47.743 12.5902C47.743 12.5337 47.7571 12.4772 47.7854 12.4206L48.5275 10.8198L46.4284 6.28226C46.4001 6.23279 46.386 6.17978 46.386 6.12324C46.386 6.01722 46.4319 5.92534 46.5238 5.8476C46.6227 5.76985 46.7288 5.73098 46.8418 5.73098C46.9125 5.73098 46.9797 5.75218 47.0433 5.79459C47.1139 5.83699 47.167 5.89707 47.2023 5.97482L48.9728 9.95044L50.7432 5.99602Z" fill="white"/>
<path d="M58.8507 30.1658H56.1884V17.6519H58.8507V30.1658Z" fill="white"/>
<path d="M5.77868 20.2177C5.36706 20.2118 4.95883 20.2968 4.58027 20.4672C4.20171 20.6376 3.86122 20.8897 3.58072 21.2071C2.98221 21.8594 2.68296 22.7618 2.68296 23.9034C2.68296 25.045 2.98221 25.9691 3.59104 26.6323C3.87586 26.9536 4.22128 27.2085 4.60513 27.3807C4.98898 27.553 5.40278 27.6388 5.81996 27.6326C6.60421 27.6326 7.23367 27.4043 7.70835 26.9585C8.14965 26.553 8.47485 26.0259 8.64739 25.4364L11.0001 26.3388C10.6906 27.3934 10.0921 28.3067 9.20462 29.0677C8.31718 29.8288 7.1924 30.2093 5.81996 30.2093C4.16891 30.2093 2.78615 29.6113 1.67169 28.4045C0.55723 27.1977 0 25.6973 0 23.9034C0 22.0878 0.546911 20.5874 1.65105 19.4023C2.75519 18.2173 4.11731 17.6193 5.75805 17.6193C7.16144 17.6193 8.30686 17.9998 9.1943 18.7609C10.0357 19.4576 10.6403 20.4226 10.9176 21.5115L8.51324 22.4357C8.36888 21.8337 8.06037 21.2894 7.6258 20.8701C7.17279 20.4352 6.56397 20.2177 5.77868 20.2177Z" fill="white"/>
<path d="M15.4177 26.5997C15.7144 26.916 16.0675 27.1673 16.4568 27.3392C16.846 27.511 17.2637 27.6 17.6858 27.601C18.1078 27.602 18.5259 27.515 18.9159 27.3451C19.3059 27.1751 19.6601 26.9255 19.9581 26.6106C20.5773 25.9474 20.8868 25.0341 20.8868 23.8491C20.8868 22.6857 20.5773 21.7833 19.9581 21.131C19.3524 20.5039 18.5371 20.1526 17.6879 20.1526C16.8387 20.1526 16.0235 20.5039 15.4177 21.131C14.7986 21.7833 14.489 22.6857 14.489 23.8491C14.489 25.0124 14.7986 25.9365 15.4177 26.5997ZM17.6879 17.6193C19.4112 17.6193 20.8353 18.2064 21.9497 19.3806C23.0642 20.5548 23.6317 22.0443 23.6317 23.8599C23.6317 25.6756 23.0745 27.1651 21.9497 28.3501C20.8249 29.5352 19.4112 30.1223 17.6879 30.1223C15.9853 30.1223 14.5716 29.5352 13.4468 28.3501C12.322 27.1651 11.7648 25.6647 11.7648 23.8599C11.7648 22.0551 12.322 20.5657 13.4468 19.3806C14.5716 18.1955 15.975 17.6193 17.6879 17.6193Z" fill="white"/>
<path d="M30.5765 17.6954V20.5548C30.2861 20.5078 29.993 20.4824 29.6993 20.4787C27.6768 20.4787 26.6758 21.5224 26.6758 23.8382V30.1223H23.9929V17.6519H26.6036V19.6524C26.8603 19.0227 27.3062 18.4994 27.8729 18.1629C28.4772 17.7936 29.1659 17.6056 29.8644 17.6193C30.1037 17.6171 30.3425 17.6427 30.5765 17.6954Z" fill="white"/>
<path d="M34.2397 22.577H40.2145C40.205 22.2251 40.1278 21.879 39.9877 21.5594C39.8476 21.2399 39.6474 20.9536 39.3993 20.7179C38.8936 20.2177 38.161 19.9677 37.2116 19.9677C36.3448 19.9677 35.6431 20.2286 35.1169 20.7505C34.5906 21.2723 34.2913 21.8855 34.2397 22.577ZM40.5344 25.643L42.98 26.3932C42.6291 27.4695 41.979 28.361 41.0194 29.0677C40.0597 29.7744 38.8833 30.1223 37.4799 30.1223C35.7463 30.1223 34.281 29.5461 33.0737 28.4045C31.8663 27.2629 31.2575 25.7299 31.2575 23.8056C31.2575 22.0008 31.8457 20.5113 33.0221 19.3588C34.1373 18.2255 35.6313 17.6005 37.1807 17.6193C39.0484 17.6193 40.5034 18.1738 41.556 19.2719C42.6085 20.37 43.1337 21.8594 43.1337 23.7338C43.1337 24.2339 43.1131 24.5275 43.0615 24.6253H34.1665C34.1776 25.046 34.2736 25.4594 34.4479 25.838C34.6223 26.2167 34.871 26.5519 35.1777 26.8215C35.8204 27.4012 36.6434 27.7109 37.4892 27.6913C39.0484 27.6978 40.07 27.0129 40.5344 25.643Z" fill="white"/>
<path d="M46.4266 30.1658H43.7023V12.2093H46.4472V19.4393C46.7361 18.9392 47.2108 18.5152 47.8712 18.1781C48.5804 17.8255 49.3574 17.6506 50.1414 17.6671C51.8441 17.6671 53.1752 18.2434 54.1349 19.4067C55.0946 20.57 55.5693 22.0486 55.5693 23.8534C55.5693 25.6908 55.0636 27.1912 54.0627 28.3762C53.0617 29.5613 51.7202 30.1375 50.0486 30.1375C48.3769 30.1375 47.1695 29.5178 46.4266 28.2675V30.1658ZM51.8647 26.6106C52.4529 25.9365 52.7418 25.0233 52.7418 23.8708C52.7418 22.7183 52.4529 21.816 51.875 21.1528C51.2972 20.4896 50.5336 20.1634 49.5842 20.1634C48.6658 20.1634 47.9125 20.4896 47.314 21.1528C46.7155 21.816 46.4266 22.7183 46.4266 23.8708C46.4266 25.0233 46.7258 25.9148 47.314 26.5997C47.9022 27.2847 48.6658 27.6217 49.5842 27.6217C50.5232 27.6217 51.2765 27.2847 51.8647 26.6106Z" fill="white"/>
<path d="M71.44 30.1549H59.6969V27.6978L67.1163 20.1308H59.5731V17.6519H71.4194V20.0373L63.9071 27.6695H71.44V30.1593V30.1549Z" fill="white"/>
<path d="M72.7502 29.6344C72.5721 29.4526 72.4314 29.2346 72.3368 28.9939C72.2423 28.7531 72.1958 28.4947 72.2003 28.2346C72.1957 27.9728 72.2421 27.7128 72.3366 27.4704C72.4312 27.2279 72.5719 27.0081 72.7502 26.8242C72.9217 26.634 73.1297 26.4835 73.3605 26.3827C73.5913 26.282 73.8398 26.2331 74.0899 26.2392C74.5962 26.2398 75.0816 26.4502 75.4396 26.8243C75.7976 27.1983 75.999 27.7055 75.9995 28.2346C76.0054 28.4959 75.9586 28.7556 75.8622 28.9967C75.7657 29.2379 75.6217 29.4552 75.4396 29.6344C75.2631 29.82 75.0526 29.9665 74.8207 30.0652C74.5888 30.1639 74.3403 30.2128 74.0899 30.209C73.8409 30.2137 73.5936 30.1652 73.3632 30.0664C73.1329 29.9675 72.9242 29.8206 72.7502 29.6344V29.6344Z" fill="#BFBFBF"/>
</svg>
